PathFileType	4	(x/y/z)	S04_M20_T34.trc
DataRate	CameraRate	NumFrames	NumMarkers	Units	OrigDataRate	OrigDataStartFrame	OrigNumFrames
240	240	8	51	mm	240	335	535
Frame#	Time	Sternum			R.Acromium			L.Acromium			Top.Head			R.ASIS			L.ASIS			R.PSIS			L.PSIS			R.Great.Tro			L.Great.Tro			R.Iliac.Crest			L.Iliac.Crest			V.Sacral			R.Thigh.Upper.Post			R.Thigh.Lower.Ant			R.Thigh.Lower.Post			R.Thigh.Upper.Ant			R.Knee.Lat			R.Knee.Med			R.Shank.Upper.Post			R.Shank.Lower.Ant			R.Shank.Lower.Post			R.Shank.Upper.Ant			R.Ankle.Lat			R.Ankle.Med			R.Heel.Upper			R.Heel.Med			R.Heel.Lat			R.Toe.Lat			R.Toe.Med			R.Toe.Tip			L.Thigh.Upper.Post			L.Thigh.Lower.Ant			L.Thigh.Lower.Post			L.Thigh.Upper.Ant			L.Knee.Lat			L.Knee.Med			L.Shank.Upper.Post			L.Shank.Lower.Ant			L.Shank.Lower.Post			L.Shank.Upper.Ant			L.Ankle.Lat			L.Ankle.Med			L.Heel.Upper			L.Heel.Med			L.Heel.Lat			L.Toe.Lat			L.Toe.Med			L.Toe.Tip			Cervical.Spine			Back			
		X1	Y1	Z1	X2	Y2	Z2	X3	Y3	Z3	X4	Y4	Z4	X5	Y5	Z5	X6	Y6	Z6	X7	Y7	Z7	X8	Y8	Z8	X9	Y9	Z9	X10	Y10	Z10	X11	Y11	Z11	X12	Y12	Z12	X13	Y13	Z13	X14	Y14	Z14	X15	Y15	Z15	X16	Y16	Z16	X17	Y17	Z17	X18	Y18	Z18	X19	Y19	Z19	X20	Y20	Z20	X21	Y21	Z21	X22	Y22	Z22	X23	Y23	Z23	X24	Y24	Z24	X25	Y25	Z25	X26	Y26	Z26	X27	Y27	Z27	X28	Y28	Z28	X29	Y29	Z29	X30	Y30	Z30	X31	Y31	Z31	X32	Y32	Z32	X33	Y33	Z33	X34	Y34	Z34	X35	Y35	Z35	X36	Y36	Z36	X37	Y37	Z37	X38	Y38	Z38	X39	Y39	Z39	X40	Y40	Z40	X41	Y41	Z41	X42	Y42	Z42	X43	Y43	Z43	X44	Y44	Z44	X45	Y45	Z45	X46	Y46	Z46	X47	Y47	Z47	X48	Y48	Z48	X49	Y49	Z49	X50	Y50	Z50	X51	Y51	Z51	

335	1.3917	967.97	1243.1	312.19	836.1	1475.3	478.4	846.99	1460	127.41	867.45	1798.9	293.21	912.97	963.54	457.18	958.07	972.66	204.76	722.87	1008.3	316.56	744.51	1007.4	237.77	805.35	897.95	500.97	855.81	892.54	119.2	826.11	1056	483.06	860.43	1057.1	137.94	711.87	966.4	275.57	729.04	655.53	484	778.6	554.59	454.09	704.2	568.77	470.71	817.59	656.85	476.75	701.83	496.59	462.98	683.65	498.43	325.88	554.72	306.1	449.63	595.27	211.84	404.73	532.39	241.06	430.1	614.31	278.26	432.34	509.13	129.58	407.54	527.06	138.71	317.11	435.19	110.48	353.26	435.97	76.071	325.76	434.51	81.369	390.78	601.83	43.853	435.28	631.24	36.552	315.08	698.8	43.432	359.7	928.33	655.04	129.24	1044.9	605.7	132.8	977.14	580.52	143.2	992.15	677.38	115.14	1056.1	519.36	146.33	1070	508.5	276.83	1065.2	320.81	151.06	1168.2	279.7	142.93	1109.1	256.36	155.64	1125	343.16	137.41	1236.8	136.51	156.59	1238.6	149.93	249.97	1192.1	65.144	208.24	1213.9	49.85	243.01	1211.1	43.862	181.11	1364.3	140.7	131.78	1388.1	173	243.54	1423.6	213.42	192.56	794.76	1520.3	305.29	710.91	1264.3	278.65
336	1.3958	973.78	1242.2	311.5	841.98	1474.6	477.53	852.91	1459.1	126.55	873.16	1798.1	292.1	918.45	962.77	456.75	964.02	971.82	204.41	728.63	1007.6	315.69	750.4	1006.6	236.93	810.58	897.4	500.33	861.92	891.77	118.6	831.62	1055.3	482.41	866.34	1056.2	137.35	717.71	965.63	274.7	733.39	655.39	483.58	782.6	554.21	453.89	708.24	568.72	470.32	821.96	656.34	476.47	705.52	496.49	462.68	687.67	498.28	325.55	557.07	307.02	449.43	596.92	212.43	404.59	534.19	242.14	429.99	616.44	278.72	432.17	510.14	130.76	407.46	528.16	139.74	317.06	436.07	112.32	353.18	436.59	77.914	325.66	435.16	83.155	390.67	602.08	44.058	435.25	631.41	36.619	315.08	698.97	43.28	359.68	934.32	654.28	128.72	1050.7	604.94	132.43	982.99	579.77	142.67	998.1	676.64	114.75	1061.9	518.56	145.86	1075.6	507.59	276.33	1071	319.94	150.5	1174	278.88	142.42	1114.9	255.52	155.09	1130.8	342.32	136.89	1242.6	135.81	156.08	1244.5	149.21	249.49	1198.2	64.253	207.8	1220.2	49.012	242.53	1217.1	43.094	180.54	1370	140.53	131.02	1393.9	172.88	242.75	1429.1	213.51	191.72	800.65	1519.5	304.37	716.68	1263.6	277.86
337	1.4	979.62	1241.4	310.78	847.9	1473.9	476.64	858.86	1458.2	125.66	878.88	1797.3	290.97	924	962.02	456.3	970.01	971.02	204.03	734.44	1006.8	314.82	756.34	1005.9	236.08	815.87	896.84	499.67	868.08	891.03	117.97	837.17	1054.6	481.74	872.27	1055.3	136.75	723.58	964.87	273.82	737.84	655.24	483.14	786.72	553.84	453.67	712.39	568.65	469.91	826.43	655.83	476.17	709.33	496.39	462.37	691.8	498.12	325.22	559.5	307.95	449.23	598.63	213.03	404.45	536.07	243.25	429.88	618.66	279.19	432.01	511.2	131.98	407.39	529.32	140.81	317.02	437	114.23	353.12	437.24	79.83	325.58	435.85	85.005	390.58	602.34	44.274	435.24	631.58	36.69	315.09	699.15	43.135	359.65	940.4	653.58	128.19	1056.7	604.24	132.06	988.95	579.08	142.14	1004.1	675.96	114.35	1067.8	517.8	145.38	1081.3	506.74	275.81	1076.7	319.11	149.95	1179.6	277.97	141.95	1120.5	254.66	154.54	1136.5	341.44	136.4	1248.1	134.96	155.61	1250.1	148.32	249.05	1203.9	63.302	207.37	1226	48.086	242.08	1222.6	42.239	179.99	1375.3	140.03	130.36	1399.4	172.4	242.06	1434.3	213.19	191	806.57	1518.7	303.44	722.48	1262.9	277.07
338	1.4042	985.49	1240.6	310.04	853.85	1473.3	475.73	864.81	1457.3	124.77	884.62	1796.5	289.84	929.6	961.28	455.82	976.04	970.25	203.62	740.3	1006.1	313.94	762.31	1005.1	235.23	821.24	896.28	498.99	874.28	890.34	117.32	842.78	1053.9	481.06	878.23	1054.4	136.13	729.5	964.12	272.93	742.4	655.08	482.69	790.95	553.46	453.44	716.64	568.57	469.49	831	655.32	475.86	713.25	496.27	462.06	696.05	497.93	324.89	562.04	308.91	449.03	600.41	213.66	404.32	538.04	244.39	429.78	620.96	279.67	431.85	512.32	133.24	407.34	530.52	141.92	316.99	437.98	116.2	353.08	437.94	81.82	325.52	436.58	86.918	390.5	602.62	44.5	435.22	631.75	36.764	315.1	699.32	42.997	359.62	946.57	652.94	127.63	1062.8	603.6	131.7	995.01	578.44	141.6	1010.3	675.33	113.96	1073.8	517.09	144.92	1087.1	505.93	275.29	1082.2	318.33	149.38	1185.1	276.98	141.5	1125.9	253.8	154.01	1142.1	340.53	135.93	1253.2	133.96	155.19	1255.2	147.28	248.67	1209	62.304	206.97	1231.2	47.081	241.65	1227.6	41.306	179.46	1380.3	139.23	129.8	1404.4	171.57	241.49	1439.3	212.47	190.4	812.51	1518	302.5	728.31	1262.2	276.28
339	1.4083	991.4	1239.8	309.28	859.84	1472.7	474.82	870.78	1456.5	123.86	890.37	1795.7	288.68	935.27	960.56	455.33	982.11	969.53	203.18	746.2	1005.4	313.06	768.33	1004.4	234.38	826.67	895.71	498.29	880.52	889.68	116.64	848.45	1053.2	480.37	884.22	1053.5	135.51	735.47	963.39	272.04	747.05	654.91	482.21	795.29	553.07	453.2	721.01	568.48	469.06	835.68	654.81	475.53	717.3	496.14	461.72	700.42	497.73	324.56	564.66	309.89	448.83	602.25	214.3	404.18	540.1	245.57	429.68	623.35	280.17	431.69	513.49	134.55	407.3	531.78	143.07	316.98	439.03	118.25	353.05	438.69	83.886	325.46	437.36	88.897	390.43	602.92	44.737	435.21	631.92	36.841	315.11	699.5	42.865	359.59	952.82	652.35	127.07	1069	603.03	131.34	1001.2	577.86	141.06	1016.5	674.76	113.57	1079.8	516.41	144.45	1093	505.17	274.74	1087.6	317.58	148.82	1190.4	275.92	141.09	1131.1	252.92	153.49	1147.6	339.58	135.48	1257.9	132.81	154.81	1260	146.1	248.33	1213.7	61.276	206.59	1235.9	46.015	241.25	1232.2	40.31	178.96	1385	138.14	129.34	1409.1	170.39	241.02	1443.9	211.36	189.93	818.47	1517.2	301.54	734.16	1261.5	275.48
340	1.4125	997.35	1239	308.5	865.87	1472.1	473.89	876.76	1455.7	122.94	896.14	1795	287.52	941.02	959.84	454.81	988.23	968.84	202.72	752.15	1004.6	312.17	774.4	1003.7	233.52	832.19	895.13	497.57	886.81	889.06	115.93	854.19	1052.6	479.67	890.23	1052.7	134.88	741.48	962.68	271.14	751.82	654.74	481.71	799.74	552.68	452.94	725.49	568.38	468.61	840.45	654.3	475.17	721.47	496	461.37	704.91	497.51	324.21	567.39	310.89	448.63	604.16	214.98	404.05	542.24	246.78	429.58	625.82	280.68	431.52	514.73	135.9	407.28	533.11	144.25	316.97	440.14	120.36	353.04	439.49	86.03	325.42	438.19	90.944	390.37	603.24	44.986	435.2	632.09	36.92	315.12	699.67	42.739	359.54	959.15	651.81	126.49	1075.3	602.5	130.98	1007.4	577.32	140.51	1022.8	674.25	113.17	1085.9	515.78	144	1098.9	504.46	274.19	1092.9	316.88	148.26	1195.5	274.78	140.71	1136.1	252.04	152.99	1153	338.62	135.05	1262.3	131.54	154.48	1264.4	144.79	248.05	1218	60.236	206.24	1240.2	44.906	240.88	1236.2	39.266	178.5	1389.2	136.75	128.97	1413.5	168.88	240.65	1448.3	209.88	189.59	824.44	1516.5	300.58	740.04	1260.8	274.68
341	1.4167	1003.3	1238.3	307.69	871.94	1471.5	472.94	882.74	1454.9	122	901.92	1794.3	286.35	946.83	959.13	454.26	994.38	968.19	202.22	758.16	1003.9	311.29	780.51	1003	232.66	837.77	894.55	496.83	893.15	888.48	115.2	859.99	1051.9	478.96	896.28	1051.8	134.23	747.55	961.98	270.24	756.68	654.55	481.2	804.3	552.28	452.66	730.09	568.27	468.14	845.33	653.79	474.8	725.75	495.85	461.01	709.51	497.27	323.86	570.21	311.92	448.43	606.14	215.68	403.91	544.48	248.02	429.47	628.38	281.2	431.35	516.03	137.29	407.26	534.5	145.47	316.97	441.32	122.54	353.04	440.35	88.253	325.38	439.08	93.061	390.31	603.58	45.247	435.2	632.26	37	315.13	699.85	42.62	359.5	965.55	651.32	125.89	1081.6	602.03	130.63	1013.7	576.84	139.96	1029.2	673.78	112.77	1092.1	515.18	143.55	1104.8	503.79	273.63	1098.2	316.22	147.7	1200.5	273.57	140.38	1140.9	251.16	152.5	1158.4	337.63	134.65	1266.4	130.15	154.19	1268.5	143.36	247.82	1221.9	59.207	205.91	1244	43.774	240.54	1239.8	38.195	178.07	1393.2	135.1	128.7	1417.6	167.06	240.39	1452.4	208.02	189.36	830.44	1515.8	299.6	745.95	1260.1	273.89
342	1.4208	1009.4	1237.6	306.87	878.04	1471	471.99	888.74	1454.1	121.04	907.71	1793.6	285.16	952.71	958.44	453.69	1000.6	967.58	201.69	764.22	1003.3	310.4	786.67	1002.3	231.8	843.44	893.95	496.06	899.54	887.94	114.44	865.87	1051.3	478.23	902.36	1051	133.56	753.67	961.31	269.32	761.66	654.35	480.66	808.99	551.88	452.37	734.8	568.14	467.66	850.32	653.28	474.39	730.17	495.68	460.63	714.22	497.01	323.5	573.14	312.97	448.22	608.19	216.4	403.78	546.81	249.29	429.36	631.03	281.75	431.18	517.4	138.72	407.26	535.96	146.73	316.98	442.57	124.8	353.05	441.26	90.557	325.34	440.02	95.251	390.27	603.95	45.52	435.2	632.43	37.081	315.14	700.02	42.507	359.44	972	650.88	125.29	1088	601.61	130.27	1020.1	576.4	139.41	1035.7	673.36	112.37	1098.4	514.63	143.12	1110.9	503.17	273.06	1103.3	315.6	147.14	1205.3	272.32	140.08	1145.6	250.28	152.03	1163.6	336.63	134.28	1270.2	128.67	153.95	1272.3	141.83	247.64	1225.3	58.211	205.61	1247.3	42.645	240.23	1242.9	37.117	177.68	1396.9	133.19	128.52	1421.4	164.94	240.24	1456.4	205.83	189.26	836.45	1515.1	298.62	751.88	1259.5	273.09
